# xmcd
#
# Track frame offsets:
#	150
#	11697
#	21877
#	33357
#	56332
#	68782
#	79025
#	98032
#	112575
#	123042
#	140770
#	152680
#	164252
#	176442
#
# Disc length: 2612 seconds
#
# Revision: 1
# Processed by: cddbd v1.5.1PL0 Copyright (c) Steve Scherf et al.
# Submitted via: audiograbber 1.83.01
#
DISCID=a10a320e
DTITLE=Trucks aus dem Zillertal - 10 Jahre auf Tour
DYEAR=1900
DGENRE=Country
TTITLE0=10 Jahre auf Tour
TTITLE1=On the road again
TTITLE2=Hallo trouble - hallo sorgen
TTITLE3=Blowing in the wind
TTITLE4=Autofahrer unterwegs
TTITLE5=Ring of fire
TTITLE6=Country Medley
TTITLE7=Achy Breaky Heart
TTITLE8=Was wär ein Mann ohne Frau
TTITLE9=Every Morning
TTITLE10=Give me one more chance
TTITLE11=Der alte Brummbär
TTITLE12=Was für ein Land
TTITLE13=Knocking on heavens door
EXTD=
EXTT0=
EXTT1=
EXTT2=
EXTT3=
EXTT4=
EXTT5=
EXTT6=
EXTT7=
EXTT8=
EXTT9=
EXTT10=
EXTT11=
EXTT12=
EXTT13=
PLAYORDER=
